<?xml version="1.0" standalone="no"?>
<!DOCTYPE svg PUBLIC "-//W3C//DTD SVG 20010904//EN"
 "http://www.w3.org/TR/2001/REC-SVG-20010904/DTD/svg10.dtd">
<svg version="1.0" xmlns="http://www.w3.org/2000/svg"
 width="452.000000pt" height="452.000000pt" viewBox="0 0 452.000000 452.000000"
 preserveAspectRatio="xMidYMid meet">
<metadata>
Created by potrace 1.14, written by Peter Selinger 2001-2017
</metadata>
<g transform="translate(0.000000,452.000000) scale(0.100000,-0.100000)"
fill="#000000" stroke="none">
<path d="M1971 4375 c-749 -98 -1399 -602 -1691 -1310 -65 -157 -120 -383
-141 -573 -15 -142 -7 -442 16 -567 83 -464 283 -847 606 -1166 338 -333 754
-534 1231 -595 214 -27 558 -7 758 45 410 107 746 302 1030 597 613 637 763
1592 376 2389 -323 662 -967 1112 -1696 1184 -131 13 -374 11 -489 -4z"/>
</g>
</svg>
